<?xml version="1.0" encoding="UTF-8" standalone="no"?>
<svg
   xmlns:dc="http://purl.org/dc/elements/1.1/"
   xmlns:cc="http://creativecommons.org/ns#"
   xmlns:rdf="http://www.w3.org/1999/02/22-rdf-syntax-ns#"
   xmlns:svg="http://www.w3.org/2000/svg"
   xmlns="http://www.w3.org/2000/svg"
   xmlns:sodipodi="http://sodipodi.sourceforge.net/DTD/sodipodi-0.dtd"
   xmlns:inkscape="http://www.inkscape.org/namespaces/inkscape"
   inkscape:version="1.0beta2 (2b71d25, 2019-12-03)"
   height="512"
   width="512"
   sodipodi:docname="question-solid.svg"
   id="svg12"
   version="1.1"
   viewBox="0 0 512 512"
   role="img"
   class="svg-inline--fa fa-question fa-w-12"
   data-icon="question"
   data-prefix="fas"
   focusable="false"
   aria-hidden="true">
  <metadata
     id="metadata18">
    <rdf:RDF>
      <cc:Work
         rdf:about="">
        <dc:format>image/svg+xml</dc:format>
        <dc:type
           rdf:resource="http://purl.org/dc/dcmitype/StillImage" />
        <dc:title></dc:title>
      </cc:Work>
    </rdf:RDF>
  </metadata>
  <defs
     id="defs16" />
  <sodipodi:namedview
     inkscape:current-layer="svg12"
     inkscape:window-maximized="0"
     inkscape:window-y="23"
     inkscape:window-x="0"
     inkscape:cy="241.11298"
     inkscape:cx="192.61622"
     inkscape:zoom="0.40672451"
     showgrid="false"
     id="namedview14"
     inkscape:window-height="796"
     inkscape:window-width="1440"
     inkscape:pageshadow="2"
     inkscape:pageopacity="0"
     guidetolerance="10"
     gridtolerance="10"
     objecttolerance="10"
     borderopacity="1"
     inkscape:document-rotation="0"
     bordercolor="#666666"
     pagecolor="#ffffff" />
  <path
     inkscape:connector-curvature="0"
     style="fill:#b3b3b3"
     id="path10"
     d="m 256.47089,0 c -79.819,0 -131.518,32.703 -172.107003,91.026 -7.363,10.58 -5.093,25.086 5.178,32.874 l 43.138003,32.709 c 10.373,7.865 25.132,6.026 33.253,-4.148 25.049,-31.381 43.63,-49.449 82.757,-49.449 30.764,0 68.816,19.799 68.816,49.631 0,22.552 -18.617,34.134 -48.993,51.164 -35.423,19.86 -82.299,44.576 -82.299,106.405 V 320 c 0,13.255 10.745,24 24,24 h 72.471 c 13.255,0 24,-10.745 24,-24 v -5.773 c 0,-42.86 125.268,-44.645 125.268,-160.627 C 431.95389,66.256 341.35189,0 256.47089,0 Z m -10.021,373.459 c -38.196,0 -69.271,31.075 -69.271,69.271 0,38.195 31.075,69.27 69.271,69.27 38.196,0 69.271,-31.075 69.271,-69.271 0,-38.196 -31.075,-69.27 -69.271,-69.27 z"
     fill="currentColor" />
</svg>
